<svg xmlns="http://www.w3.org/2000/svg" viewBox="0 0 100 100">
  <rect width="100" height="100" rx="18" fill="#0d1117"/>

  <!-- tail -->
  <path d="M20 60 L9 64 L20 69 Z" fill="#2ea043"/>

  <!-- back leg -->
  <rect x="23" y="58" width="11" height="17" rx="5" fill="#2ea043"/>
  <!-- front leg -->
  <rect x="55" y="59" width="11" height="17" rx="5" fill="#2ea043"/>

  <!-- head (starts well inside shell footprint so the shell fully hides the seam) -->
  <path d="M64 36
           C 78 30 95 35 95 46
           C 95 54 84 59 75 57
           C 68 56 63 49 63 43
           C 63 40 63 38 64 36 Z" fill="#2ea043"/>
  <!-- eye -->
  <circle cx="87" cy="45" r="2.2" fill="#0d1117"/>

  <!-- shell -->
  <clipPath id="shellClip">
    <path d="M18 58
             C 16 39 27 23 43 21
             C 55 19 67 23 75 33
             C 81 41 81 51 76 58
             C 71 64 59 67 45 67
             C 31 67 20 64 18 58 Z"/>
  </clipPath>
  <path d="M18 58
           C 16 39 27 23 43 21
           C 55 19 67 23 75 33
           C 81 41 81 51 76 58
           C 71 64 59 67 45 67
           C 31 67 20 64 18 58 Z" fill="#3fb950"/>

  <g clip-path="url(#shellClip)" stroke="#0d1117" stroke-width="1.8" stroke-linecap="round">
    <line x1="38" y1="32" x2="28" y2="44"/>
    <line x1="38" y1="32" x2="48" y2="44"/>
    <line x1="58" y1="32" x2="48" y2="44"/>
    <line x1="58" y1="32" x2="68" y2="44"/>
    <line x1="28" y1="44" x2="38" y2="56"/>
    <line x1="48" y1="44" x2="38" y2="56"/>
    <line x1="48" y1="44" x2="58" y2="56"/>
    <line x1="68" y1="44" x2="58" y2="56"/>
    <line x1="68" y1="44" x2="74" y2="37"/>
    <line x1="68" y1="44" x2="74" y2="51"/>
    <g fill="#0d1117" stroke="none">
      <circle cx="38" cy="32" r="2.6"/>
      <circle cx="58" cy="32" r="2.6"/>
      <circle cx="28" cy="44" r="2.6"/>
      <circle cx="48" cy="44" r="2.6"/>
      <circle cx="68" cy="44" r="2.6"/>
      <circle cx="38" cy="56" r="2.6"/>
      <circle cx="58" cy="56" r="2.6"/>
      <circle cx="74" cy="37" r="2.4"/>
      <circle cx="74" cy="51" r="2.4"/>
    </g>
  </g>
</svg>
